<?xml version="1.0" standalone="no"?>
<!DOCTYPE svg PUBLIC "-//W3C//DTD SVG 20010904//EN"
 "http://www.w3.org/TR/2001/REC-SVG-20010904/DTD/svg10.dtd">
<svg version="1.0" xmlns="http://www.w3.org/2000/svg"
 width="256.000000pt" height="256.000000pt" viewBox="0 0 256.000000 256.000000"
 preserveAspectRatio="xMidYMid meet">

<g transform="translate(0.000000,256.000000) scale(0.100000,-0.100000)"
fill="#000000" stroke="none">
<path d="M1088 2495 c-373 -61 -717 -306 -892 -636 -219 -411 -186 -911 84
-1291 35 -49 67 -88 71 -88 5 0 9 13 9 29 0 17 4 33 10 36 6 4 10 73 10 175 0
102 -4 171 -10 175 -6 3 -10 29 -10 56 l0 50 62 -3 62 -3 51 -132 c27 -73 53
-133 58 -133 11 0 8 158 -3 165 -5 3 -10 28 -10 56 l0 49 66 0 67 0 -7 -77
c-3 -42 -6 -166 -6 -275 l0 -199 -57 3 -57 3 -43 110 c-65 167 -64 167 -58 18
l5 -133 -50 0 c-27 0 -50 -4 -50 -8 0 -4 21 -28 47 -53 162 -156 398 -275 624
-315 108 -19 311 -21 410 -5 509 84 906 467 1009 973 24 116 29 317 11 429
-42 258 -165 495 -352 680 -170 169 -341 264 -584 325 -127 32 -336 41 -467
19z m447 -496 l115 -112 0 -309 c0 -255 -3 -314 -15 -338 -31 -60 -31 -60
-361 -60 l-301 0 -27 27 c-14 14 -29 36 -32 47 -2 12 -3 195 -2 407 3 371 4
388 23 409 11 12 29 26 40 31 11 4 116 8 233 8 l212 1 115 -111z m-475 -1035
l40 -36 0 -201 0 -201 -37 -38 -37 -38 -95 0 c-93 0 -96 1 -128 32 l-33 32 0
205 0 205 37 38 37 38 88 0 c87 0 88 0 128 -36z m425 -24 l0 -55 -43 -3 c-24
-2 -50 2 -58 9 -12 10 -14 -14 -14 -169 0 -110 4 -183 10 -187 6 -3 10 -24 10
-46 l0 -39 -70 0 -70 0 0 39 c0 22 5 43 10 46 6 4 10 74 10 179 l0 172 -60 -4
-60 -4 0 54 c0 30 3 58 7 62 4 3 79 5 167 4 l161 -3 0 -55z m345 0 l0 -60 -43
0 c-24 0 -48 5 -54 11 -6 6 -23 9 -39 7 -28 -3 -29 -4 -29 -63 l0 -60 63 -3
62 -3 0 -49 0 -50 -65 0 -65 0 0 -61 0 -61 85 7 85 7 0 -56 0 -56 -145 0 -145
0 0 39 c0 22 5 43 10 46 6 4 10 77 10 185 0 108 -4 181 -10 185 -11 7 -14 78
-3 88 3 4 69 7 145 7 l138 0 0 -60z m332 23 c35 -34 38 -42 38 -90 l0 -53 -50
0 c-48 0 -50 1 -50 28 0 36 -17 52 -54 52 -50 0 -57 -11 -54 -71 l3 -54 65 -3
c59 -3 68 -6 103 -40 l37 -36 0 -92 0 -93 -37 -30 c-35 -29 -42 -31 -122 -31
-82 0 -86 1 -118 32 -29 28 -33 38 -33 85 l0 53 50 0 50 0 0 -36 0 -35 53 3
c51 3 52 4 55 37 2 19 1 44 -2 57 -6 22 -12 24 -68 24 -58 0 -65 2 -100 37
l-38 37 0 90 0 90 37 38 c37 38 38 38 117 38 79 0 81 -1 118 -37z"/>
<path d="M962 2057 c-22 -23 -22 -27 -22 -415 0 -379 1 -393 20 -412 19 -19
33 -20 319 -20 l300 0 20 26 c20 26 21 38 21 330 l0 304 -75 0 c-68 0 -77 2
-107 29 -30 27 -33 34 -36 105 l-4 76 -207 0 c-204 0 -208 0 -229 -23z m506
-319 c-4 -10 -51 -14 -183 -16 -182 -3 -211 0 -200 18 10 16 388 13 383 -2z
m2 -163 c0 -13 -28 -15 -190 -15 -162 0 -190 2 -190 15 0 13 28 15 190 15 162
0 190 -2 190 -15z m0 -160 c0 -13 -28 -15 -190 -15 -162 0 -190 2 -190 15 0
13 28 15 190 15 162 0 190 -2 190 -15z"/>
<path d="M1430 1996 c0 -72 27 -96 109 -96 l55 0 -74 75 c-41 41 -78 75 -82
75 -5 0 -8 -24 -8 -54z"/>
<path d="M881 886 c-8 -9 -11 -64 -9 -172 l3 -159 60 0 60 0 3 159 c2 108 -1
163 -9 172 -6 8 -30 14 -54 14 -24 0 -48 -6 -54 -14z"/>
</g>
</svg>
